<svg height="645" viewBox="0 0 509.5 131.5" width="2500" xmlns="http://www.w3.org/2000/svg"><path d="m275.8 109.6v-60.2h-.4c-7.5 6.3-17.7 9.6-21.9 10.8v.4c2.6 5.2 3.7 10.8 3.9 15.3-3.5-3-8.7-6.2-15.6-6.2-12.1 0-26.1 11.1-26.1 30.9 0 22.7 12.6 30.8 25.2 30.8 8.8 0 14.5-4.4 17.1-7.2.7 2.9 2.8 6.3 8.5 6.3h15.2v-.4c-2.9-2.4-5.9-8.6-5.9-20.5m-18.2 11.3c-2.4 2.5-5 3.8-8.1 3.8-11.4 0-15-15.7-15-26.7 0-9.3 2.7-22.6 13.1-22.6 3.7 0 7.4 1.6 10 4.4zm250.5 9.2v.4h-14.9c-8 0-9.1-5.6-9.1-9.3v-16c0-8.1.1-16.7-3.5-24.1v-.4c4.2-1.2 13.8-4.1 21.3-10.4h.4v39.2c0 12 3 18.2 5.8 20.6m1.4-73.1c-1.9-3.8-5-7-9.2-7-9.6 0-14.5 14.5-14.5 23h.4c5.4-10.9 15.8-14.3 23.3-16m-320.5 52.6c0 11.9 3 18.2 5.8 20.5v.4h-14.9c-5.8 0-8-3-8.8-6.2-4.1 3.7-9.2 7.1-17.5 7.1-11.2 0-19.8-6.4-19.8-20.6v-5.6c0-8.1.1-16.7-3.5-24.1v-.4c4.2-1.2 13.8-4.1 21.3-10.4h.4v37.2c0 9.7 1.8 17.2 9.5 17.2 3.4 0 6.8-1.5 9.3-3.8v-15.7c0-8.1.1-16.7-3.5-24.1v-.4c4.2-1.2 13.8-4.1 21.3-10.4h.4zm154.5 2.3c2.4 11.5 5.6 15.7 9.5 18.2v.4h-13.3c-6.9 0-12.1-2.9-14.1-12.2l-5.6-26.1c-2.3-10.8-4.2-15.2-8.7-15.2-2.6 0-4.7 2.1-6.4 4.4l-.1 28.2c0 11.9 3 18.2 5.8 20.5v.4h-24v-46.2c0-8.1-.5-16.3-4.2-23.7v-.4c4.2-1.2 14.5-4.5 21.9-10.8h.4v27.8c2.2-2.7 8.1-7.4 15.6-7.4 11.1 0 15.8 8.3 18.2 19zm-287.1 0-4.9-23.1c-3.1-14.5-11.2-19-21.3-19-4.2 0-7.9.8-11.4 2.2v.4c6.1-.1 8.9 3 11 7.9l-1.8.5c-16.8 5.2-28 16.3-28 29.6 0 12.2 10 21.1 21.8 21.1 7 0 13.8-3.4 18-8.6 1.2 4.1 5.6 7.7 12.1 7.7h13.7v-.4c-4.1-2.7-6.9-7.7-9.2-18.3m-23.6 9.8c-9.8 0-15.7-9.3-15.7-19.4 0-9.6 5.3-16.3 13.7-19.1.5 1.6 1.2 4 2.3 9l6.1 28c-1.9 1-4.1 1.5-6.4 1.5m68-51.9c-6.6 0-11.9 2.5-15.3 4.6v-25h-.4c-7.4 6.3-17.7 9.6-21.9 10.8v.4c3.7 7.4 4.2 15.6 4.2 23.7v46.2c4.2 0 11.2-1.4 16.5-5.1 3 2.7 8.5 5.9 16.4 5.9 14.4 0 27.2-10.8 27.2-31 0-20.3-13-30.5-26.7-30.5m-5.6 56.3c-3.9 0-7.5-1.6-9.8-3.8v-44.3c2-1.1 4.1-1.8 6.4-1.8 10.7 0 16.8 13.8 16.8 28.6 0 12.7-4.6 21.3-13.4 21.3m355.9-56.3c-6.6 0-11.9 2.5-15.3 4.6v-25h-.4c-7.5 6.3-17.7 9.6-21.9 10.8v.4c3.7 7.4 4.2 15.6 4.2 23.7v46.2c4.2 0 11.2-1.4 16.5-5.1 3 2.7 8.5 5.9 16.4 5.9 14.4 0 27.2-10.8 27.2-31 0-20.3-13-30.5-26.7-30.5m-5.6 56.3c-3.9 0-7.5-1.6-9.8-3.8v-44.3c2-1.1 4.1-1.8 6.4-1.8 10.7 0 16.8 13.8 16.8 28.6 0 12.7-4.6 21.3-13.4 21.3m-38.8-14.2-4.9-23.1c-3.1-14.5-11.2-19-21.3-19-4.2 0-7.9.8-11.4 2.2v.4c6.1-.1 8.9 3 11 7.9l-1.8.5c-16.8 5.2-28 16.3-28 29.5 0 12.2 10 21.1 21.8 21.1 7 0 13.8-3.4 18-8.6 1.2 4.1 5.6 7.7 12.1 7.7h13.7v-.4c-4-2.5-6.9-7.3-9.2-18.2m-23.6 9.8c-9.8 0-15.7-9.3-15.7-19.4 0-9.6 5.3-16.3 13.7-19.1.5 1.6 1.2 4 2.3 9l6.1 28c-1.9 1-4.1 1.5-6.4 1.5m-123.8-103.2c.5-4.6 2.7-7.7 6.6-7.7 2 0 3.5 1.5 3.5 3.2 0 4-4.4 4.5-7.4 4.5zm-8.2 4.8c0 7.9 6.2 13.9 14.4 13.9 7.9 0 13.3-6.4 13.3-13.7h-.3c-.8 4.6-4.1 7.3-8.6 7.3-6 0-10.9-3.8-10.9-10.6h17.4c0-7.3-5.7-10.9-11.1-10.9-7.8-.1-14.2 5.7-14.2 14zm-28.5 0c0 7.9 6.3 13.9 13.9 13.9 8.2 0 12.4-5.4 13.2-12h-.2c-1.2 3.4-3.7 5.6-8 5.6-7 0-11.6-5.1-11.6-11.5 0-5 2.8-8 7-8 4.1 0 8 3.1 10.7 9.3h.2v-8.6c-3.7-2-6.5-2.8-11.2-2.8-7.6 0-14 5.8-14 14.1zm-30.8-9c1.6 3.3 1.9 7 1.9 10.7v11.7h10.9v-.2c-1.3-1-2.6-3.9-2.6-9.3v-12.6c.8-1.1 1.7-2 2.9-2 2.1 0 2.9 1.8 3.9 6.7l2.6 11.8c.9 4.3 3.3 5.6 6.4 5.6h6v-.2c-1.7-1.1-3.2-3.1-4.3-8.3l-2.2-10.4c-1-4.9-3.3-8.6-8.3-8.6-3.3 0-6.1 2.1-7 3.3v-3.3h-.2c-3.3 2.9-8.1 4.4-10 5zm-20.6 4.2c.5-4.6 2.7-7.7 6.6-7.7 2 0 3.5 1.5 3.5 3.2 0 4-4.4 4.5-7.4 4.5zm-8.2 4.8c0 7.9 6.2 13.9 14.4 13.9 7.9 0 13.3-6.4 13.3-13.7h-.3c-.8 4.6-4.1 7.3-8.6 7.3-6 0-10.9-3.8-10.9-10.6h17.4c0-7.3-5.7-10.9-11.1-10.9-7.8-.1-14.2 5.7-14.2 14zm-11.5-12.6c0-4.1 2.3-10.7 6.5-10.7 2.1 0 3.5 1.4 4.4 3.2-3.5.8-8.2 2.4-10.8 7.5zm-24.9 3.5c1.7 3.5 1.6 7.3 1.6 10.9v11.6h11v-.2c-1.5-1-2.7-3.9-2.7-9.3v-4.2c0-5.7 6.1-6.6 9.8-5.8l1.7-8c-6.8.6-10.2 3.9-11.5 9.3v-9.3h-.2c-3.2 2.9-7.9 4.2-9.8 4.8v.2zm-20.6 4.3c.5-4.6 2.7-7.7 6.6-7.7 2 0 3.5 1.5 3.5 3.2 0 4-4.4 4.5-7.4 4.5zm-8.1 4.8c0 7.9 6.2 13.9 14.4 13.9 7.9 0 13.3-6.4 13.3-13.7h-.3c-.8 4.6-4.1 7.3-8.6 7.3-6 0-10.9-3.8-10.9-10.6h17.4c0-7.3-5.7-10.9-11.1-10.9-7.9-.1-14.2 5.7-14.2 14zm-22.1 8.9v-17.9c1.1-1.2 2.3-1.8 3.8-1.8 5.2 0 6.9 6.8 6.9 11.8 0 4.3-1.3 10-6.1 10-1.7 0-3.4-.9-4.6-2.1zm-10-17.9c1.7 3.6 1.6 7.4 1.7 11.2v22.7c2.6-.9 6.4-2.4 9.6-5-.8-1.7-1.3-3.8-1.3-6.6v-2.3c1.6 1.4 4 2.9 7.4 2.9 5.5 0 12-5 12-14.1 0-10.3-5.8-13.9-11.5-13.9-3.9 0-6.6 2-7.8 3.3v-3.3h-.3c-3.3 3-7.8 4.3-9.8 4.8zm-29.6-4.5c1.5.4 2.9 2.4 6.5 7.8l4.6 6.9-3.5 4.5c-3.9 5.1-5.9 6.6-7.5 7.4v.3h9.9v-.3c-1.8-2-2.3-4.7.7-8.7l1.4-1.8 4.1 6.2c2 3 3.8 4.5 6.6 4.5h7.4v-.3c-1.5-.4-3-2.6-6.5-7.8l-5-7.4 2.8-4.3c3.3-5 5.9-6.3 7.5-7.1v-.1h-8.9v.3c1.7 2.5.5 5.6-1.3 8.3l-1.1 1.7-3.9-5.7c-2.1-3.1-3.8-4.5-6.6-4.5h-7.1v.1zm-17.4 8.7c.5-4.6 2.7-7.7 6.6-7.7 2 0 3.5 1.5 3.5 3.2 0 4-4.4 4.5-7.4 4.5zm-8.1 4.8c0 7.9 6.2 13.9 14.4 13.9 7.9 0 13.3-6.4 13.3-13.7h-.3c-.8 4.6-4.1 7.3-8.6 7.3-6 0-10.9-3.8-10.9-10.6h17.4c0-7.3-5.7-10.9-11.1-10.9-7.9-.1-14.2 5.7-14.2 14zm140 1.8v7.4c0 1.9.5 4.3 4.3 4.3h6.8v-.2c-1.5-1-2.8-3.9-2.8-9.3v-18h-.2c-3.3 2.9-7.9 4.2-9.8 4.8v.2c1.8 3.4 1.7 7.2 1.7 10.8z" fill="#333"/></svg>