<svg id="Layer_1" data-name="Layer 1" xmlns="http://www.w3.org/2000/svg" viewBox="0 0 500 438.81"><title>Herschel Supply Co. logo - Brandlogos.net</title><path d="M171.4,382.48c7.94,0,17.51-4,27.09-3.19,1.55-4,1.55-7.94,3.19-11.95,1.55-4.74,4-9.58,5.56-14.32.82-1.55.82-4,1.55-5.56s.82-2.37,1.55-4c0-.82.82-1.55.82-2.37V338.7c0-.82.82-1.55.82-2.37.82-1.55.82-4,1.55-5.56.82-3.19,2.37-5.56,3.19-8.76s1.55-5.56,2.37-8.76,2.37-4.74,3.19-7.94c1.55-3.19,1.55-7.21,3.19-10.4a66,66,0,0,0,3.19-11.13c1.55-6.39,4.74-12.77,7.94-19.15,1.55-4,4-7.94,4.74-12.77,0-1.55.82-3.19.82-4.74.82-1.55,1.55-4.74,3.19-4.74,2.37-.82,6.39,4.74,7.94,6.39.82.82,1.55,2.37,2.37,3.19a5.8,5.8,0,0,1,1.55,3.19v4c-.82,2.37-1.55,5.56-2.37,7.93-.82,1.55-.82,2.37-1.55,4-1.55,4.74-3.19,8.76-4.74,12.77-2.37,6.39-4.74,11.95-7.21,18.33-1.55,4-2.37,8.76-4,12.77-1.55,4.74-3.19,9.58-4.74,15.14-.82,4-2.37,7.2-4,11.13s-2.37,7.21-4,11.13c-1.55,6.39-4.74,12.77-6.39,19.15,0,1.55-.82,2.37-.82,4,0,.82-.82,2.37-.82,3.19a66.85,66.85,0,0,0,12.77.82c1.55-3.19,2.37-5.56,4-8.76,2.37-4,4.74-9.58,8.76-14.32.82-.82,1.55-.82,2.37-1.55,3.19-4,6.39-7.21,11.95-9.58.82-.82,4-1.55,4.74-1.55,3.19,0,4.74,4,7.21,5.56a16.07,16.07,0,0,1,4.74,3.19,20.54,20.54,0,0,1,4.74,4c.82,1.55,2.37,4,2.37,5.56,0,2.37-.82,4.74-1.55,7.94-.82,4.74-.82,7.94-3.19,11.13-1.55,1.55-4,2.37-5.56,4a4,4,0,0,1-3.19,1.55c-1.55.82-2.37,1.55-4,1.55-1.55.82-3.19.82-4.74,1.55-3.19.82-6.39,2.37-9.58,3.19-.82,0-5.56.82-5.56.82-1.55,7.21,0,16,4,20.7,2.37.82,6.39-.82,8.76-2.37,3.19-1.55,6.38-4.74,8.76-7.21,6.39-5.56,11.13-11.95,16-19.15.82-1.55,1.55-4,3.19-5.56.82-.82.82-.82.82-1.55a24.11,24.11,0,0,1,4-7.94c1.55-2.37,3.19-6.39,3.19-8.76.82-4-1.55-8.76,0-12.77.82-1.55,1.55-2.37,2.37-4a2.84,2.84,0,0,0,.82-2.37c0-2.37,3.19-2.37,4.74-1.55s2.37,4,4,4.74l4,4c.82,2.37,0,4.74,1.55,6.39,4-.82,6.38-3.19,9.58-2.37,1.55,0,3.19,1.55,5.56,2.37,1.55.82,4,.82,5.56,2.37a17.2,17.2,0,0,1,2.37,4,27.79,27.79,0,0,1,1.55,8.76c0,3.19-2.37,4.74-3.19,6.39-7.94,7.21-14.32,15.14-17.51,26.36,0,.82-.82,3.19-.82,4,.82.82,3.19-1.55,4-2.37l1.55-1.55a33.41,33.41,0,0,1,5.56-4.74c3.19-3.19,7.21-6.39,9.58-10.4-2.37-5.56.82-10.4,5.56-6.39,3.19-3.19,4.74-7.21,7.93-11.13.82-1.55,2.37-2.37,3.19-4s1.55-3.19,2.37-4.74,2.37-3.19,3.19-5.56c.82-1.55,2.37-3.19,3.19-5.56.82-.82.82-1.55,1.55-3.19,0-.82.82-1.55.82-2.37v-9.58c0-.82,1.55-.82,2.37-.82v-1.55l.82-.82a2.84,2.84,0,0,1,2.37-.82,7,7,0,0,1,4.74,2.37c.82.82.82,2.37.82,3.19,2.37,2.37,5.56,5.56,5.56,9.58a6.69,6.69,0,0,1-1.55,4c-.82,5.56,0,12.77,1.55,18.33a76,76,0,0,1,2.37,19.16c1.55-.82,2.37-2.37,3.19-4,1.55-3.19,4-6.39,5.56-9.58a41.89,41.89,0,0,1,5.56-10.4,20.49,20.49,0,0,1,4-4.74,98,98,0,0,1,7.21-10.4,44.28,44.28,0,0,1,6.39-5.56c.82-.82,2.37-1.55,3.19-2.37S416.39,340,418,340c.82-.82,2.37-.82,3.19-.82s2.37-.82,3.19-.82c2.37,0,4.74-.82,6.39.82a23.57,23.57,0,0,1,5.56,4c.82,1.55,2.37,4,4,4.74h1.55c.82,0,2.37-.82,3.19,0a4,4,0,0,1,1.55,3.19c0,2.37,0,4.74-.82,6.39,0,.82-.82,1.55-.82,2.37s-.82,1.55-1.55,2.37a4,4,0,0,0-1.55,3.19c-.82,1.55-.82,2.37-1.55,4s-1.55,2.37-2.37,4c-.82,2.37-1.55,4-5.56,2.37-.82-.82-2.37-1.55-3.19-2.37s-1.55-.82-2.37-2.37c-2.37,1.55-2.37.82-2.37-.82s-.82-2.37-.82-3.19c0-1.55.82-2.37.82-3.19s.82-1.55,0-2.37-2.37,0-3.19,0c-2.37.82-3.19,3.19-4.74,4.74a32.11,32.11,0,0,0-6.39,7.94c-.82,1.55-1.55,3.19-2.37,4.74s-2.37,3.19-2.37,4.74c-1.55,5.56-2.37,9.58,1.55,13.59a2.83,2.83,0,0,0,2.37.82c.82,0,.82.82,1.55.82a10.77,10.77,0,0,0,4.74,1.55c4.74-.82,11.95-4,16-6.39,1.55-.82,3.19-3.19,5.56-4,1.55-1.55,4-3.19,4.74-4.74,0-.82.82-1.55.82-2.37a42.53,42.53,0,0,0,4-10.4,60.71,60.71,0,0,1,2.37-6.39c.82-.82.82-2.37.82-3.19.82-2.37,2.37-4,3.19-6.39,1.55-2.37,2.37-5.56,4-7.94.82-1.55,1.55-3.19,2.37-4.74a42.3,42.3,0,0,0,3.19-8.76c.82-1.55.82-3.19,1.55-4,.82-1.55,1.55-2.37,1.55-4s.82-2.37.82-4c.82-1.55,1.55-2.37,1.55-4,1.55-3.19,3.19-7.2,4.74-10.4a29.09,29.09,0,0,1,3.19-7.21c1.55-3.19,3.19-7.21,4.74-11.13a20.85,20.85,0,0,0,3.19-7.21c.82-2.37,2.37-4,4-6.39s1.55-5.56,3.19-8.76c1.55-2.37,2.37-4.74,4-7.94a53.31,53.31,0,0,1,3.19-7.93c.82-1.55,2.37-5.56,4-6.39,4-1.55,7.94,4.74,9.58,7.94a6,6,0,0,1,1.55,4,21.93,21.93,0,0,1-.82,7.21c-1.55,7.21-4.74,12.77-7.21,18.33-6.39,11.13-12.77,22.35-19.15,33.48-.82,1.55-2.37,3.19-3.19,4.74s-.82,3.19-1.55,4c-.82,1.55-1.55,2.37-2.37,4s-.82,2.37-1.55,4c0,.82-.82,2.37-.82,3.19-.82.82-.82,2.37-1.55,3.19A12.44,12.44,0,0,0,481,336.7c.82-.82,1.55-1.55,2.37-1.55,1.55-.82,4-1.55,5.56-2.37s4-.82,6.38-.82a17.7,17.7,0,0,1,6.39,4,19.2,19.2,0,0,1,4,3.19c.82,1.55,2.37,3.19,3.19,4.74.82,4-.82,6.39-1.55,9.58v4.74c0,1.55-.82,2.37-1.55,4a33.4,33.4,0,0,0-4,7.21c-.82,1.55-.82,3.19-1.55,4-.82,1.55-2.37,3.19-3.19,4.74a10.78,10.78,0,0,0-1.55,4.74c-.82,1.55-1.55,4-2.37,5.56s-2.37,5.56,0,6.39c1.55.82,5.56-1.55,7.21-3.19s3.19-2.37,4.74-4,3.19-2.37,4.74-4a33.5,33.5,0,0,0,4.74-5.56c.82-3.19.82-7.94,1.55-11.13a42.82,42.82,0,0,1,4-9.58,52.91,52.91,0,0,1,16-19.15,14,14,0,0,1,4-3.19c4-1.55,9.58,0,11.95,2.37,1.55,1.55,4,3.19,5.56,4.74,2.37,2.37,6.39,4,7.21,7.94.82,1.55,0,3.19,0,5.56-.82,2.37-.82,4-1.55,6.39a60.44,60.44,0,0,1-2.37,6.39l-3.19,3.19c-1.55,1.55-4,3.19-6.39,5.56a67.15,67.15,0,0,1-7.94,6.39c-1.55.82-4,4-7.21,3.19-2.37-.82-4-3.19-6.39-4-1.55,4.74,1.55,9.58,4,13.59.82.82,1.55,1.55,2.37,1.55,3.19.82,5.56-.82,7.94-2.37,4-2.37,5.56-5.56,8.76-7.94,1.55-1.55,4-2.37,4.74-4a17.08,17.08,0,0,0,3.19-4c1.55-2.37,4-5.56,6.39-7.2.82-.82,2.37-1.55,4-3.19a17.1,17.1,0,0,0,3.19-4c3.19-4,4-6.39,4.74-11.95a44.45,44.45,0,0,0,.82-10.4c.82-3.19.82-6.39,1.55-9.58a17.12,17.12,0,0,0,.82-6.39c1.55-9.58,5.56-18.33,8.76-27.91.82-2.37.82-4.74,1.55-7.21s2.37-4,2.37-6.39c.82-1.55.82-4,1.55-5.56s2.37-3.19,3.19-5.56a37.72,37.72,0,0,0,2.37-5.56c3.19-7.21,6.39-14.32,10.4-21.53,1.55-3.19,4-7.21,5.56-10.4,1.55-2.37,1.55-6.38,4.74-7.21,2.37-.82,7.21,1.55,9.58,3.19,3.19,2.37.82,8.76,0,12.77-.82,3.19-1.55,5.56-1.55,8.76a7.26,7.26,0,0,1-.82,4c-.82,3.19-1.55,6.39-2.37,9.58s-.82,7.21-1.55,10.4c0,1.55-1.55,3.19-1.55,5.56s0,4.74-.82,6.39a42.31,42.31,0,0,0-3.19,8.76,37.71,37.71,0,0,1-3.19,8.76,29.46,29.46,0,0,0-3.19,7.2c-.82,2.37-2.37,4.74-3.19,7.94a77.92,77.92,0,0,1-5.56,11.95c-3.19,6.38-7.21,12.77-11.13,19.15-.82,1.55-1.55,2.37-2.37,4s-2.37,2.37-2.37,4c-.82,3.19-.82,8.76,0,13.59a37.85,37.85,0,0,1,.82,9.58c0,1.55,0,3.19.82,4a6.48,6.48,0,0,0,1.55,3.19c1.55.82,4,0,5.56,0a12.07,12.07,0,0,0,4.74-1.55c1.55-.82,2.37-1.55,4-2.37s2.37-1.55,4-2.37c3.19-.82,5.56-4,7.94-6.39,1.55-1.55,4-5.56,6.39-6.39,3.19-.82,4.74,3.19,3.19,6.39-.82,2.37-2.37,4-3.19,6.39-1.55,2.37-3.19,4.74-4.74,7.21a67.16,67.16,0,0,1-7.94,6.38c-.82.82-.82,1.55-1.55,1.55-.82.82-1.55.82-2.37,1.55a16.09,16.09,0,0,0-4.74,3.19,37.65,37.65,0,0,1-5.56,2.37c-2.37.82-5.56.82-7.94.82-1.55,0-4,0-5.56-.82s-3.19-2.37-4.74-3.19c-2.37-.82-4-4-4-6.38a38.82,38.82,0,0,1-1.55-9.58v-5.56c-8.76,6.39-20,19.15-29.46,25.54-2.37,1.55-7.21,1.55-10.4.82-2.37-.82-4.74-2.37-7.21-3.19a16.06,16.06,0,0,1-4.74-3.19,43.05,43.05,0,0,1-4.74-6.39c-.82-.82-1.55-2.37-3.19-3.19l-2.37,1.55-2.37,2.37c-.82.82-1.55,1.55-2.37,1.55a18.05,18.05,0,0,1-4.74,3.19,21.58,21.58,0,0,1-11.95,4h-4a13.51,13.51,0,0,1-7.21-2.37c-1.55-.82-4-1.55-5.56-4-.82-.82-.82-2.37-.82-4a20.38,20.38,0,0,1,1.55-6.39c.82-2.37.82-4.74,1.55-6.39,1.55-3.19,3.19-7.21,4.74-10.4.82-2.37,2.37-4.74,3.19-7.21s.82-4.74,1.55-7.2c0-1.55.82-4.74-.82-5.56-2.37-2.37-7.94-.82-10.4.82a19.33,19.33,0,0,0-4,2.37c-.82.82-2.37.82-3.19,2.37-.82.82-.82,1.55-1.55,2.37l-3.19,3.19c-.82.82-.82,2.37-1.55,3.19,0,.82-.82,1.55-.82,3.19-.82,1.55-1.55,4-2.37,5.56-.82,2.37-2.37,4.74-3.19,8.76-1.55,4.74-4,10.4-4.74,16-.82,2.37-.82,5.56-1.55,7.94,0,.82-1.55,3.19-2.37,3.19a17.53,17.53,0,0,1-4.74-1.55c-3.19-1.55-6.39-1.55-7.21-5.56a51.7,51.7,0,0,0-6.39,3.19c-.82.82-1.55,1.55-2.37,1.55-.82.82-2.37.82-3.19.82s-.82,0-1.55.82-1.55.82-3.19.82h-4c-2.37,0-5.56-.82-7.94-.82-1.55,0-3.19,0-4-.82a12,12,0,0,1-3.19-2.37,25,25,0,0,1-6.39-6.39c-1.55-2.37-2.37-5.56-3.19-8.76-2.37,1.55-3.19,3.19-4.74,5.56-1.55,1.55-2.37,4-4,6.39-3.19,4-5.56,7.94-9.58,11.13-3.19,2.37-9.58,4-14.32,4-9.58-1.55-15.14-8.76-20-16-3.19,3.19-7.21,7.21-11.95,11.13-3.19,2.37-4,4-7.94,5.56a22.22,22.22,0,0,1-7.21,1.55,7.26,7.26,0,0,1-4-.82c-.82,0-2.37,0-3.19-.82a10.69,10.69,0,0,1-2.37-3.19c-.82-2.37-1.55-5.56-2.37-7.94v-4.74c0-1.55,0-4,.82-5.56a14.2,14.2,0,0,0,1.55-5.56,29.14,29.14,0,0,1,3.19-7.2c.82-1.55,4-5.56,3.19-6.39,0-3.19-5.56-2.37-7.21-4-2.37,2.37-4,5.56-5.56,7.94-.82,1.55-1.55,2.37-2.37,4s-1.55,3.19-2.37,4.74-2.37,2.37-3.19,4-1.55,3.19-2.37,4.74c-2.37,3.19-3.19,6.39-5.56,8.76a54.16,54.16,0,0,1-6.39,7.94c-2.37,2.37-5.56,5.56-8.76,7.21-1.55.82-4,.82-5.56.82-2.37,0-4.74.82-6.39.82a21.38,21.38,0,0,1-7.21.82c-1.55,0-3.19-1.55-5.56-1.55-1.55-.82-2.37-.82-4-1.55s-2.37-2.37-3.19-3.19L228,419.25c-3.19-5.56-4-13.59-4-21.53-4.74-.82-10.4-.82-15.14-1.55-.82,0-4,11.13-4,12.77a89.07,89.07,0,0,0-3.19,13.59c0,1.55-.82,4-.82,5.56,0,.82-.82,1.55-.82,2.37-2.37,7.2-4.74,13.59-7.21,20.7a4.47,4.47,0,0,1-1.55,3.19c-.82,1.55-2.37.82-4,1.55-.82,0-.82.82-1.55.82a1.75,1.75,0,0,1-1.55-1.55c-.82-1.55,0-4,0-5.56,0-2.37-.82-5.56-.82-8.76,0-2.37.82-4.74.82-6.39a43.75,43.75,0,0,1,1.55-9.58c.82-4.74.82-10.4,2.37-15.14.82-4.74,2.37-9.58,3.19-13.59a96.62,96.62,0,0,0-27.09,6.39c-.82.82-.82,2.37-1.55,4s-1.55,4-2.37,5.56c-.82,5.56-2.37,11.13-3.19,16.78,0,3.19-.82,5.56-1.55,8.76-1.55,7.21-3.19,14.32-4.74,22.35a2.83,2.83,0,0,1-.82,2.37c-.82.82-1.55.82-2.37,1.55s-.82,3.19-2.37,3.19c4-1.55.82-3.19.82-3.19-.82-.82-.82-2.37-.82-3.19a10.85,10.85,0,0,1,0-7.21c0-4,.82-7.2,1.55-11.13,0-2.37.82-4,.82-6.39,1.55-9.58,1.55-19.15,4-27.91-2.37.82-6.39,2.37-9.58,1.55-1.55-.82-4.74-3.19-5.56-5.56a14.63,14.63,0,0,1-1.55-6.39c0-.82-.82-2.37-.82-3.19s.82-.82,1.55-.82c1.55.82,2.37,0,4-.82,1.55,0,3.19-.82,4.74-.82a54.05,54.05,0,0,0,10.4-4c.82-2.37.82-5.56,1.55-8.76,1.55-6.39,2.37-11.95,4-18.33.82-2.37.82-5.56,1.55-7.94v-4.74c0-.82.82-2.37.82-3.19a22.88,22.88,0,0,0,1.55-6.39,173,173,0,0,1,3.19-18.33c1.55-5.56,4-11.13,4.74-16.78a21.91,21.91,0,0,1,.82-7.21c0-1.55,1.55-2.37,1.55-3.19v-4c2.37-10.4,6.39-20.71,8.76-31.1,0-1.55.82-3.19.82-4,0-1.55,0-3.19.82-4a12,12,0,0,0,1.55-4,38.85,38.85,0,0,0,1.55-9.58c.82-1.55.82-3.19,1.55-4.74s4,0,4.74,0,1.55.82,2.37.82c1.55.82,2.37.82,3.19,1.55l2.37,2.37a14.83,14.83,0,0,1,4,5.56,9.69,9.69,0,0,1,.82,4.74c0,1.55-1.55,3.19-1.55,4.74a72.32,72.32,0,0,0-3.19,11.95c-4,10.4-7.21,22.35-11.13,33.47a14.2,14.2,0,0,0-1.55,5.56c-1.55,4.74-1.55,10.4-3.19,15.14a74.43,74.43,0,0,0-2.37,7.21,22.19,22.19,0,0,0-1.55,7.21c-2.37,11.95-4.74,23.17-7.94,35.12C175.32,370.53,172.13,376.09,171.4,382.48ZM620.34,271.66c-3.19,7.21-6.39,13.59-8.76,22.35-.82.82-.82,2.37-.82,3.19,0,3.19-9.58,26.36-8.76,29.46,2.37-3.19,10.4-27.09,11.95-30.28v-.82a76.26,76.26,0,0,0,6.39-23.9ZM263.07,360.13c-4.74,4.74-8.76,9.58-12.77,14.32-.82.82-2.37,2.37-2.37,4,9.58-1.55,16-8.76,15.14-18.33Zm87.75,43.05c1.55.82,3.19,2.37,4,2.37s3.19-2.37,4-3.19c2.37-2.37,4.74-5.56,4.74-7.94,0-7.94-2.37-17.51-2.37-25.54h-.82c-7.21,7.94-10.4,18.33-16.78,27.09,1.55,1.55,2.37,4,4,5.56A4.54,4.54,0,0,1,350.81,403.18Zm183.43-31.92c3.19-.82,16-12.77,15.14-20.7C543.73,349,535.79,368.16,534.24,371.26Z" transform="translate(-134 -164.59)" style="fill:#231f20"/><path d="M364.31,168.77c0,4,1.55,7.93,1.55,12.77,2.37,0,7.94-2.37,7.21,1.55,0,2.37-4.74,1.55-7.21,2.37a95.55,95.55,0,0,0,1.55,14.32c2.37,0,8.76-2.37,9.58,0,.82,3.19-11.13,3.19-12.77,2.37A258,258,0,0,1,361.85,167c1.55-.82,5.56-.82,7.94-1.55,1.55,0,3.19-.82,3.19.82C373.89,168.77,366.78,167.95,364.31,168.77Z" transform="translate(-134 -164.59)" style="fill:#231f20"/><path d="M389.85,167.95c-1.55-2.37-5.56-.82-6.38,1.55a6.59,6.59,0,0,0,0,5.56c.82,2.37,4,4.74,5.56,7.93,3.19,4,5.56,8.76,3.19,15.14-2.37,3.19-8.76,4.74-11.95,0-.82-1.55-3.19-11.13.82-11.13,3.19,0,0,10.4,4.74,10.4a4.54,4.54,0,0,0,4.74-4.74c-.82-7.93-9.58-11.13-10.4-20,0-1.55,0-3.19,1.55-4.74,3.19-5.56,11.13-4,11.13,3.19,0,.82,0,3.19-1.55,3.19-.82,0-.82-1.55-.82-2.37A5.72,5.72,0,0,0,389.85,167.95Z" transform="translate(-134 -164.59)" style="fill:#231f20"/><path d="M413.75,168.77c-1.55,1.55-4.74,0-6.39,0,0,8.76,0,17.51-.82,26.36v3.19c0,1.55,0,3.19-2.37,3.19-1.55-1.55-.82-4-.82-5.56.82-8.76.82-18.33,1.55-27.09,0,.82-4.74,0-5.56,0s-2.37-.82-1.55-1.55c0-.82,2.37-.82,3.19-.82h6.39C409.83,165.58,414.57,165.58,413.75,168.77Z" transform="translate(-134 -164.59)" style="fill:#231f20"/><path d="M435.28,202.24c.82.82,1.55,2.37,2.37,3.19l2.37,2.37c1.55.82,3.19.82,4,1.55,3.19.82,6.39,2.37,9.58,2.37,1.55.82,4,.82,5.56.82,7.21.82,14.32.82,21.53,1.55a159.21,159.21,0,0,1,19.15,4c7.94,2.37,17.51,5.56,23.9,11.13.82.82,5.56,5.56,2.37,7.21-2.37.82-3.19-3.19-4-4-2.37-2.37-5.56-3.19-7.94-4.74-3.19-1.55-6.39-2.37-9.58-4a207.35,207.35,0,0,0-21.53-5.56c-11.95-1.55-24.72-1.55-35.12-4.74-4.74-1.55-10.4-2.37-12.77-7.21-.82-.82-.82-1.55-1.55-2.37,0-.82,0-1.55-.82-1.55h-1.55c-.82,0-.82-.82-1.55-.82-2.37-1.55-4-4-4-6.39-.82-4.74,1.55-13.59,2.37-18.33.82-4,.82-7.93,3.19-9.58,1.55-1.55,7.21-1.55,8.76-.82s3.19,4,3.19,5.56c0,2.37-.82,5.56-.82,8.76-.82,4.74-1.55,8.76-2.37,12.77C437.74,198.23,436.92,200.69,435.28,202.24Zm-7.11-14.32c-.82,4.74-.82,11.13,3.19,11.13,4,.82,4-2.37,4-5.56.82-4.74,2.37-9.58,2.37-15.14,0-1.55.82-3.19.82-4.74s-1.55-4-3.19-4c-1.55-.82-4-.82-4.74,1.55-.82,1.55,0,3.19-.82,4.74,0,1.55-.82,4-.82,5.56C429,183.91,428.16,185.46,428.16,187.92Z" transform="translate(-134 -164.59)" style="fill:#231f20"/><path d="M357.2,202.24c-3.19,2.37-4.74-.82-6.39-4-2.37-4.74-5.56-11.95-7.21-16a106.46,106.46,0,0,0,1.55,15.14c0,1.55,1.55,5.56-1.55,5.56-2.37,0-2.37-7.94-3.19-10.4-.82-6.38-.82-11.95-2.37-18.33v-3.19c0-1.55.82-3.19,2.37-1.55,1.55.82,2.37,2.37,3.19,4a188.93,188.93,0,0,0,7.94,19.15c0-4-.82-7.93-.82-13.59,0-3.19-2.37-11.95,1.55-11.13,1.55.82,1.55,2.37,1.55,4.74C354.74,181.54,357.2,191.85,357.2,202.24Z" transform="translate(-134 -164.59)" style="fill:#231f20"/><path d="M449.69,169.59c.82,0,.82,1.55,1.55,2.37,0,1.55,0,3.19-.82,4-.82,4.74-1.55,10.4-2.37,16,0,2.37-.82,4.74-.82,6.39a6.07,6.07,0,0,0,5.56,4c4-.82,4-6.39,4.74-11.13s1.55-7.94,2.37-13.59c0-2.37.82-5.56,2.37-5.56s.82,4,.82,7.21c-.82,5.56-1.55,9.58-2.37,14.32-.82,5.56-1.55,10.4-6.39,11.95-5.56,1.55-11.13-2.37-10.4-8.76,0-3.19,1.55-7.21,2.37-10.4.82-4,.82-7.21,1.55-11.13.18-1.73,1-4.92,1.82-5.65Z" transform="translate(-134 -164.59)" style="fill:#231f20"/><path d="M338,203.79c-3.19,1.55-3.19-4.74-4-7.21-1.55-6.38-1.55-11.95-3.19-18.33,0-1.55-.82-3.19-.82-4.74,0-.82-.82-3.19.82-4,1.55-1.55,2.37,2.37,2.37,3.19s0,2.37.82,3.19c.82,4,1.55,6.39,1.55,10.4C335.67,193.49,338.87,199.87,338,203.79Z" transform="translate(-134 -164.59)" style="fill:#231f20"/><path d="M316.52,176.7a72.35,72.35,0,0,1,3.19,11.95c1.55,0,7.94-4,9.58-.82.82,3.19-6.38,3.19-7.93,4,0,3.19.82,5.56,2.37,8.76.82,2.37,2.37,7.21-.82,7.21-2.37,0-3.19-6.39-4-8.76,0-1.55,0-3.19-.82-4-1.55-6.39-4.74-15.14-4.74-21.53,2.37,0,6.39-2.37,9.58-2.37,1.55,0,3.19,0,2.37,2.37S318.07,175.15,316.52,176.7Z" transform="translate(-134 -164.59)" style="fill:#231f20"/><path d="M474.41,199.05c-1.55-.82-3.19-1.55-4.74-2.37a44.51,44.51,0,0,1-3.19,5.56c-.82.82-.82,1.55-1.55,2.37a.8.8,0,0,1-.82.82c-2.37.82-2.37-1.55-1.55-3.19s1.55-3.19,2.37-4.74c4-7.21,6.39-16,10.4-23.17,2.37-1.55,1.55,2.37,1.55,4.74a15.15,15.15,0,0,0,.82,5.56c0,6.39-.82,13.59-.82,18.33,0,2.37,0,4.74-1.55,5.56C472,209.45,474.41,201.42,474.41,199.05Zm-4-4.74c1.55.82,2.37,1.55,4,1.55a33.34,33.34,0,0,0,0-12.77A95,95,0,0,1,470.39,194.31Z" transform="translate(-134 -164.59)" style="fill:#231f20"/><path d="M490.37,177.53c-.82,10.4-4.74,20-6.39,29.46,1.55,1.55,8.76,1.55,7.94,4.74,0,3.19-4.74,0-5.56,0-2.37-.82-5.56-.82-6.39-2.37s.82-5.56,1.55-7.94c1.55-7.21,4.74-17.51,6.39-23.17C488.73,178.35,489.55,176.7,490.37,177.53Z" transform="translate(-134 -164.59)" style="fill:#231f20"/><path d="M288.61,182.27c.82,4,2.37,7.94,3.19,11.95l4.74-1.55c.82,0,1.55-.82,2.37-.82,1.55,0,2.37,1.55.82,3.19a10.77,10.77,0,0,1-4.74,1.55l-2.37.82c.82,4,3.19,7.94,4,11.95,4-.82,7.2-3.19,11.13-2.37,1.55,2.37-2.37,3.19-4.74,4-3.19.82-7.21,3.19-8.76,0-.82-1.55-1.55-4.74-2.37-7.21-2.37-7.21-5.56-16-6.39-23.9,2.37-.82,7.94-4,10.4-3.19a2.5,2.5,0,0,1,1.55.82C298.18,181.54,290.16,181.54,288.61,182.27Z" transform="translate(-134 -164.59)" style="fill:#231f20"/><path d="M505.51,181.54c1.55.82.82,3.19,0,4a207.69,207.69,0,0,1-5.56,21.53c-.82,2.37-1.55,8.76-4.74,7.21-1.55-2.37.82-4.74,1.55-7.93,1.55-4.74,3.19-11.13,4.74-16.78.82-3.28,1.64-6.48,4-8Z" transform="translate(-134 -164.59)" style="fill:#231f20"/><path d="M519,188.65c-.82,5.56-4,10.4-5.56,15.14-.82,2.37-.82,4.74-1.55,7.21-.82,1.55-1.55,6.38-3.19,6.38-3.19,0-.82-5.56,0-7.21,2.37-7.94,5.56-15.14,7.94-22.35a20.55,20.55,0,0,0-4-1.55c-.82,0-.82-.82-1.55-.82,0,0-.82-2.37,0-2.37,2.37,0,4.74.82,8.76,2.37,2.37.82,5.56,1.55,5.56,3.19C526.21,192.67,520.65,189.47,519,188.65Z" transform="translate(-134 -164.59)" style="fill:#231f20"/><path d="M286.24,208.63c.82.82.82,2.37,1.55,3.19.82,1.55,1.55,4-.82,4-2.37.82-2.37-3.19-3.19-5.56s-3.19-6.39-3.19-8.76c-2.37.82-4,1.55-6.39,1.55l2.37,7.21c.82,1.55.82,2.37,1.55,4,0,1.55,1.55,4-.82,4-1.55,0-2.37-2.37-2.37-4-.82-3.19-3.19-7.21-4-11.13a72.4,72.4,0,0,1-3.19-11.95c0-.82-1.55-3.19-.82-4,.82-2.37,3.19,1.55,3.19,2.37.82.82.82,2.37.82,3.19.82,2.37,2.37,4.74,2.37,7.21,2.37,0,4.74-1.55,7.2-2.37-.82-3.19-1.55-4.74-2.37-8.76-.82-2.37-2.37-6.38,0-6.38,1.55,0,2.37,3.19,2.37,4,.82,1.55.82,4,1.55,5.56.82,2.37,1.55,5.56,2.37,7.93.82,1.55.82,2.37,1.55,4C285.41,207,285.41,207.81,286.24,208.63Z" transform="translate(-134 -164.59)" style="fill:#231f20"/><path d="M528.59,189.47h0c.82,1.55,0,4,.82,4.74a31.69,31.69,0,0,0,.82,8.76c1.55-1.55,4.74-3.19,7.21-4.74.82-.82,1.55-2.37,2.37-3.19s2.37-1.55,3.19-.82c.82,1.55-1.55,4-2.37,4.74-3.19,3.19-7.94,6.39-11.13,10.4a102.19,102.19,0,0,1-4,11.95c-.82,1.55-.82,4.74-4,3.19,0-4,2.37-8.76,4-12.77A36.3,36.3,0,0,0,527,200.6c0-1.55-.82-4-.82-5.56s0-4,.82-4.74C527.85,188.65,528.59,188.65,528.59,189.47Z" transform="translate(-134 -164.59)" style="fill:#231f20"/><path d="M256.68,194.31c2.37,5.56,5.56,14.32,8.76,21.53.82,2.37,4,7.21.82,7.94-2.37.82-3.19-4-4-6.39a228.14,228.14,0,0,1-7.93-21.53c-2.37.82-4,2.37-6.39,1.55-.82-2.37,3.19-3.19,5.56-4.74,2.37-.82,5.56-3.19,7.21-3.19.82,0,2.37,0,2.37,1.55C262.25,192.67,258.33,192.67,256.68,194.31Z" transform="translate(-134 -164.59)" style="fill:#231f20"/><path d="M370,286h14.32c0,1.55.82,3.19,0,4.74-.82.82-3.19,0-4.74,0v28.73c-.82.82-4,.82-4.74,0V290h-5.56C369.15,290,368.33,286.8,370,286Z" transform="translate(-134 -164.59)" style="fill:#231f20"/><path d="M399.43,286.8v33.47c-.82.82-3.19,0-4.74,0-.82-4,0-10.4,0-15.14-.82-.82-2.37,0-3.19,0,0,4.74.82,11.13,0,15.14-1.55,0-4,.82-4.74-.82-.82-10.4,0-22.35.82-32.65,1.55-.82,3.19,0,4.74,0v12.77c.82.82,2.37,0,3.19,0,0-4-.82-9.58,0-13.59C396.24,286.8,397.88,286.8,399.43,286.8Z" transform="translate(-134 -164.59)" style="fill:#231f20"/><path d="M416.21,287.53c0,.82.82,3.19,0,4-1.55.82-4,0-5.56,0-.82,2.37,0,6.39,0,8.76h5.56c0,.82.82,3.19,0,4s-3.19,0-4.74.82c-.82,3.19,0,6.39,0,9.58H417c0,.82.82,2.37,0,4a25.44,25.44,0,0,1-11.13,0c0-7.21-.82-14.32-.82-21.53,0-3.19-.82-7.21.82-10.4A57.66,57.66,0,0,1,416.21,287.53Z" transform="translate(-134 -164.59)" style="fill:#231f20"/><path d="M404.17,435.11c4-.82,5.56,2.37,6.39,5.56.82,4.74,0,9.58,0,13.59v4c0,2.37.82,4.74-.82,7.21-1.55,1.55-4,3.19-6.39,3.19-1.55,0-4.74-.82-5.56-1.55-2.37-2.37-1.55-18.33-1.55-23.9C397.88,439.12,399.43,435.93,404.17,435.11Zm2.46,5.56a.8.8,0,0,0-.82-.82c-1.55-.82-2.37,0-3.19,1.55-.82,2.37,0,8.76,0,12.77v4.74a17.12,17.12,0,0,0,.82,6.39c0,.82.82.82,1.55.82,2.37,0,2.37-1.55,2.37-3.19.82-1.55.82-4,.82-6.39V443C406.64,441.49,406.64,440.67,406.64,440.67Z" transform="translate(-134 -164.59)" style="fill:#231f20"/><path d="M392.22,448.7c-1.55,0-3.19,0-4-.82s-.82-2.37-.82-3.19c0-1.55.82-4-1.55-4.74s-3.19,2.37-3.19,4v11.95c0,3.19-.82,7.94,1.55,8.76,4.74,1.55,2.37-5.56,4-8.76h4c.82,4,.82,10.4-1.55,11.95-3.19,3.19-10.4,1.55-11.95-1.55-.82-.82-.82-2.37-.82-4-.82-7.21.82-17.51.82-23.17,1.55-4,5.56-4.74,9.58-4,.82,0,1.55.82,2.37,1.55s1.55,1.55,1.55,2.37v3.19C393,442.31,392.22,448.7,392.22,448.7Z" transform="translate(-134 -164.59)" style="fill:#231f20"/><path d="M282.22,446.24c-.82,0-3.19.82-3.19,0-.82-1.55.82-4.74-.82-5.56-4.74-2.37-4.74,4-2.37,7.21s7.21,7.2,7.21,12.77c0,4-.82,9.58-6.39,9.58-6.39,0-6.39-7.21-5.56-11.95.82,0,2.37-.82,4,0,.82,2.37-.82,7.21,2.37,7.21,1.55-.82,1.55-4,1.55-5.56a6.49,6.49,0,0,0-1.55-3.19c-1.55-3.19-5.56-6.39-6.39-8.76-.82-3.19,0-7.94,1.55-9.58s6.38-2.37,9.58-1.55C283,437.48,283,443,282.22,446.24Z" transform="translate(-134 -164.59)" style="fill:#231f20"/><path d="M291,436.66c.82,3.19,0,7.21,0,11.95s-.82,9.58,0,12.77c0,2.37,1.55,5.56,4.74,4,1.55-4,.82-8.76.82-14.32V436.75a3.58,3.58,0,0,1,4,0v17.51c0,4,.82,8.76-.82,12.77s-8.76,4.74-11.95,1.55c-.82-1.55-1.55-4.74-2.37-7.94V447.88c0-4-.82-10.4,1.55-11.13C288.61,435.93,290.16,435.93,291,436.66Z" transform="translate(-134 -164.59)" style="fill:#231f20"/><path d="M354.74,436.66c1.55,3.19,2.37,7.21,4,10.4a42.53,42.53,0,0,0,4-10.4c.82,0,3.19-.82,4,0,0,2.37-1.55,5.56-2.37,7.94s-3.19,5.56-3.19,7.94c-.82,5.56,1.55,11.13,0,16.78h-4V452.53c0-1.55-1.55-3.19-1.55-4-.82-1.55-.82-3.19-1.55-4.74-.82-2.37-2.37-4-1.55-7.2C351.54,435.93,353.19,436.66,354.74,436.66Z" transform="translate(-134 -164.59)" style="fill:#231f20"/><path d="M431.35,435.93h6.39c3.19,0,4.74.82,5.56,4,.82,2.37.82,5.56.82,8.76,0,.82-.82,2.37-1.55,4,1.55.82.82,3.19,1.55,6.39,0,4,1.55,9.58-2.37,11.13-2.37.82-7.21,0-10.4,0a239.4,239.4,0,0,1,0-34.3Zm4.74,3.92v10.4h2.37c.82,0,1.55-.82,1.55-2.37,0-2.37.82-5.56-.82-7.21C437.74,440.67,436.92,439.85,436.1,439.85Zm4,15.14a.8.8,0,0,0-.82-.82c-.82,0-3.19-1.55-3.19,0v10.4c.82.82,3.19,0,4,0V459C440.11,458.18,440.93,456.63,440.11,455Z" transform="translate(-134 -164.59)" style="fill:#231f20"/><path d="M462.46,453.44c2.37,1.55,0,11.95,2.37,16-1.55.82-4,0-5.56.82-1.55-4,.82-11.13-.82-15.14h-2.37c-.82,4,0,9.58,0,14.32h-5.56c0-10.4-.82-22.35.82-31.92,4.74-.82,12.77-1.55,13.59,3.19C464.83,443.86,464,451.07,462.46,453.44Zm-7.21-12.77v10.4c.82,0,3.19,0,3.19-.82V439.94C458.44,439.85,456.07,440.67,455.25,440.67Z" transform="translate(-134 -164.59)" style="fill:#231f20"/><path d="M504.69,469.4c-.82-2.37-.82-5.56-.82-7.94,0-7.94,0-17.51.82-24.72,4-.82,9.58-.82,11.13,1.55.82.82.82,3.19.82,4v23.9C515.82,471,508.7,470.22,504.69,469.4Zm4-28.73v23.9h4c-.82-7.21.82-16.78-.82-23.17C511.89,440.67,509.52,441.49,508.7,440.67Z" transform="translate(-134 -164.59)" style="fill:#231f20"/><path d="M328.47,454.26c-.82,4.74,0,10.4-.82,15.14a3.58,3.58,0,0,1-4,0,207.19,207.19,0,0,1,0-31.92c1.55,0,9.58-1.55,11.13,0a10.53,10.53,0,0,1,1.55,3.19c.82,3.19.82,11.13-1.55,12.77C333.21,455,330.84,454.26,328.47,454.26Zm3.19-12.77h-4v7.94c2.37,0,3.19,0,4.74-.82C332.48,446.24,333.21,443,331.66,441.49Z" transform="translate(-134 -164.59)" style="fill:#231f20"/><path d="M345.25,436.66c.82,7.94,0,18.33.82,27.09,1.55,0,5.56-.82,7.21.82v4.74c-3.19,0-8.76.82-11.13-.82,0-10.4-.82-22.35.82-31.92A11.86,11.86,0,0,0,345.25,436.66Z" transform="translate(-134 -164.59)" style="fill:#231f20"/><path d="M475.23,436.66c.82,0,.82,4.74.82,5.56a30.57,30.57,0,0,0,1.55,7.94,22.18,22.18,0,0,1,1.55,7.2,19.13,19.13,0,0,1,.82,6.39c0,1.55,1.55,4,.82,5.56-1.55,0-3.19,0-4-.82,0-2.37-.82-4.74-.82-6.39-.82-.82-3.19,0-4.74,0,0,2.37,0,5.56-1.55,7.21h-4a234.87,234.87,0,0,1,4.74-32.65.8.8,0,0,1,.82-.82A7,7,0,0,0,475.23,436.66ZM472,457.45h3.19a43.66,43.66,0,0,0-1.55-9.58C472.76,451.07,472.76,454.26,472,457.45Z" transform="translate(-134 -164.59)" style="fill:#231f20"/><path d="M499.12,437.48v16.78c0,5.56.82,11.95-.82,16a11.21,11.21,0,0,1-4.74-.82c-.82-5.56-3.19-11.95-4.74-17.51-.82,5.56.82,11.95,0,18.33a4.7,4.7,0,0,1-4.74-.82c-.82-9.58,0-22.35,0-31.92h4.74a52.66,52.66,0,0,1,5.56,16.78c.82-4.74-.82-11.95.82-16.78C495.93,436.66,496.75,436.66,499.12,437.48Z" transform="translate(-134 -164.59)" style="fill:#231f20"/><path d="M306.94,436.66c4,.82,7.21-1.55,10.4.82,1.55.82,3.19,13.59,1.55,16s-4.74,1.55-7.21,1.55c-.82,4,0,10.4-.82,14.32-.82,0-3.19,0-4-.82a218.48,218.48,0,0,1,.09-31.83Zm4,12.77c1.55,0,3.19,0,4-.82a21.91,21.91,0,0,0-.82-7.21c-.82-.82-2.37-.82-4-.82A35.78,35.78,0,0,1,311,449.43Z" transform="translate(-134 -164.59)" style="fill:#231f20"/><path d="M418.58,463c0,2.37.82,5.56-.82,6.39a3.47,3.47,0,0,1-4-.82V462.2C415.39,461.38,416.94,462.2,418.58,463Z" transform="translate(-134 -164.59)" style="fill:#231f20"/><path d="M407.36,497.31c1.55-4-2.37-5.56-4.74-7.21-20.71-2.37-16.78,23.9-1.55,24.72,6.39,0,13.59-3.19,20-5.56,1.55-.82,4.74-1.55,6.39,0,1.55,2.37-1.55,4.74-.82,5.56,4.74,1.55,10.4-5.56,15.14-4.74,2.37,0,5.56,3.19,3.19,6.39H602.83c2.37,0,8.76-.82,9.58.82.82,3.19-7.94,1.55-10.4,1.55H170.58c-2.37,0-11.13.82-10.4-1.55,0-1.55,7.21-.82,8.76-.82H325.28c0-1.55-2.37-3.19-.82-5.56,7.94-2.37,12.77,4,19.15,4,1.55-2.37-4-3.19-2.37-6.39s9.58,3.19,11.95,4c4.74,1.55,11.95,3.19,17.51,1.55,7.21-1.55,11.95-10.4,8.76-17.51-.82-2.37-4-5.56-7.94-6.39-4.74,0-10.4,2.37-9.58,7.94,4,0,4-4,7.94-4,7.21,0,7.21,10.4.82,12.77-7.94,2.37-13.59-5.56-11.95-11.95,1.55-4.74,9.58-8.76,16-6.39,3.19.82,5.56,4,6.39,6.39,4,8.76-2.37,16-7.94,22.35,5.56-.82,11.95,0,18.33,0-3.19-5.56-9.58-15.14-4.74-23.17,1.55-3.19,5.56-5.56,10.4-6.39,3.19,0,8.76,0,11.13,2.37,6.39,6.39,0,18.33-7.94,16.78-6.39-.82-7.93-12.77,0-12.77C403.44,494.94,405,496.49,407.36,497.31Z" transform="translate(-134 -164.59)" style="fill:#231f20"/><path d="M449.69,536.35c2.37,11.13,4.74,21.53,7.21,31.92h-8.76c-.82-1.55-.82-4-.82-5.56-.82-.82-3.19,0-4.74,0-.82,1.55-.82,4-1.55,6.39-1.55,0-6.39,0-7.94-.82,2.37-11.13,4-21.53,7.21-31.92C443.3,536.35,448,535.62,449.69,536.35Zm-5.56,20h1.55c0-1.55,0-4-.82-4.74C444.85,553.14,444.12,554,444.12,556.33Z" transform="translate(-134 -164.59)" style="fill:#231f20"/><path d="M428.16,537.17c0,10.4.82,23.17,0,31.92-2.37,0-4.74,0-6.39-.82-.82-4.74,0-9.58,0-14.32-1.55,4.74-3.19,10.4-4.74,14.32-1.55.82-4,0-6.38,0-2.37-4-3.19-8.76-4-12.77-.82,4,0,9.58-.82,11.95a8.6,8.6,0,0,1-6.39,0c0-9.58-.82-22.35,0-31.1,2.37-.82,6.39,0,8.76,0,2.37,4.74,3.19,11.95,5.56,16.78,2.37-4.74,3.19-11.13,5.56-16.78A35.13,35.13,0,0,1,428.16,537.17Z" transform="translate(-134 -164.59)" style="fill:#231f20"/><path d="M280.58,537.17v6.39h-4.74c-1.55,8.76,0,16-.82,24.72h-7.93c-.82-7.2,0-16.78,0-24.72-1.55-.82-3.19,0-6.39-.82-.82-1.55,0-4,0-5.56Z" transform="translate(-134 -164.59)" style="fill:#231f20"/><path d="M337.22,537.17c4,.82,10.4-.82,13.59,0,8.76,3.19,4,16,5.56,27.09-1.55,6.39-13.59,4.74-20,4,0-9.58,0-20.7.82-31.1Zm6.38,6.39v19.15c.82,0,4,0,4.74-.82,1.55-4.74,1.55-14.32,0-18.33Z" transform="translate(-134 -164.59)" style="fill:#231f20"/><path d="M508.7,537.17c-1.55,5.56-4.74,9.58-7.21,14.32,2.37,7.21,7.21,10.4,10.4,16.78-4,0-7.21.82-11.13,0-1.55-2.37-4-5.56-5.56-7.94-.82,2.37,0,6.39-.82,7.94h-7.94a207.12,207.12,0,0,1,0-31.92h7.94c.82,2.37,0,5.56,0,7.94a51.88,51.88,0,0,1,5.56-8.76A18.21,18.21,0,0,0,508.7,537.17Z" transform="translate(-134 -164.59)" style="fill:#231f20"/><path d="M301.38,551.49c4.74,2.37,1.55,11.95,4.74,16a19,19,0,0,1-9.58,0c-2.37-3.19,1.55-13.59-4-13.59-.82,4,0,9.58-.82,13.59-1.55,0-4.74.82-7.21,0-.82-9.58,0-21.53,0-30.28,5.56,0,15.14-2.37,17.51,3.19C304.57,543.56,303.75,549.94,301.38,551.49Zm-8.85-2.37c1.55,0,2.37,0,3.19-.82a9.69,9.69,0,0,0-.82-4.74c-.82-.82-2.37,0-3.19-.82A17.13,17.13,0,0,1,292.53,549.12Z" transform="translate(-134 -164.59)" style="fill:#231f20"/><path d="M477.6,551.49c4.74,2.37,1.55,11.95,4.74,16a19,19,0,0,1-9.58,0c-2.37-3.19,1.55-13.59-4-13.59-.82,4,0,9.58-.82,13.59-1.55,0-4.74.82-7.21,0-.82-9.58,0-21.53,0-30.28,5.56,0,15.14-2.37,17.51,3.19C480.79,543.56,480,549.94,477.6,551.49Zm-8.76-2.37c1.55,0,2.37,0,3.19-.82a9.7,9.7,0,0,0-.82-4.74c-.82-.82-2.37,0-3.19-.82A17.13,17.13,0,0,1,468.84,549.12Z" transform="translate(-134 -164.59)" style="fill:#231f20"/><path d="M324.45,537.17c2.37,4,2.37,9.58,4,15.14.82,5.56,3.19,10.4,4,15.14-1.55.82-4.74,0-7.93,0-.82-2.37-1.55-4.74-2.37-7.21-.82-.82-2.37,0-4,0-.82,2.37-1.55,4.74-.82,7.21h-8.76a202.35,202.35,0,0,1,7.21-30.28C318.07,538,321.26,537.17,324.45,537.17Zm-5.56,17.51h1.55a9.69,9.69,0,0,1-.82-4.74A8.67,8.67,0,0,1,318.89,554.69Z" transform="translate(-134 -164.59)" style="fill:#231f20"/><path d="M611.59,583.42c0,4-5.56,2.37-9.58,2.37H566.16c-12.77,0-25.54-.82-39,0-24.72.82-72.6-.82-105.26,0,0,1.55,1.55,3.19.82,4.74-1.55,4-8.76.82-11.95-.82-1.55,6.39-6.39.82-10.4-.82-2.37-.82-5.56-2.37-8.76-1.55s-5.56,7.21-3.19,10.4c1.55,2.37,7.21,4,8.76-.82-1.55-.82-3.19,2.37-5.56.82-3.19-2.37,0-5.56,1.55-5.56,2.37-.82,6.39.82,6.39,3.19,2.37,7.94-9.58,9.58-12.77,5.56-4-4-.82-11.95,3.19-15.14h-10.4c.82,3.19,4,4.74,4,7.94.82,6.39-4.74,10.4-10.4,9.58-4-.82-5.56-6.39-3.19-9.58,2.37-2.37,9.58-2.37,8.76,2.37-.82,4-4.74,1.55-7.21,2.37,1.55,4,8.76,1.55,8.76-2.37.82-3.19-2.37-7.21-4.74-7.94-6.39-1.55-10.4,7.94-16,4.74a4,4,0,0,1-1.55-3.19c-2.37,3.19-14.32,3.19-9.58-4H169c-2.37,0-10.4.82-11.13-.82-.82-2.37,5.56-1.55,7.94-1.55,23.9-1.55,48.62,0,71.78,0H602.83C606.75,582.6,609.95,581.87,611.59,583.42Z" transform="translate(-134 -164.59)" style="fill:#231f20"/><path d="M378.72,537.17a10.85,10.85,0,0,1,0,7.21c-1.55,0-4.74.82-7.94,0v4.74c2.37,0,5.56-.82,7.94,0a8.58,8.58,0,0,1,0,6.39c-2.37.82-4.74.82-7.94.82-.82,1.55,0,4,0,5.56h7.94a8.58,8.58,0,0,1,0,6.38c-4,.82-10.4,0-15.14.82a207.2,207.2,0,0,1,0-31.92A46.81,46.81,0,0,1,378.72,537.17Z" transform="translate(-134 -164.59)" style="fill:#231f20"/></svg>